<svg width="16" height="16" viewBox="0 0 16 16" fill="none" xmlns="http://www.w3.org/2000/svg">
  <rect width="16" height="16" rx="8" fill="#FF7272" />
  <path
    d="M11.1442 10.481C11.2322 10.569 11.2817 10.6885 11.2817 10.813C11.2817 10.9376 11.2322 11.057 11.1442 11.1451C11.0561 11.2331 10.9367 11.2826 10.8121 11.2826C10.6876 11.2826 10.5682 11.2331 10.4801 11.1451L8.00001 8.66419L5.51915 11.1443C5.43109 11.2323 5.31166 11.2818 5.18712 11.2818C5.06259 11.2818 4.94315 11.2323 4.85509 11.1443C4.76703 11.0562 4.71756 10.9368 4.71756 10.8122C4.71756 10.6877 4.76703 10.5683 4.85509 10.4802L7.33595 8.00013L4.85587 5.51927C4.76781 5.43121 4.71834 5.31177 4.71834 5.18724C4.71834 5.0627 4.76781 4.94327 4.85587 4.85521C4.94393 4.76715 5.06337 4.71768 5.1879 4.71768C5.31244 4.71768 5.43188 4.76715 5.51994 4.85521L8.00001 7.33607L10.4809 4.85482C10.5689 4.76676 10.6884 4.71729 10.8129 4.71729C10.9374 4.71729 11.0569 4.76676 11.1449 4.85482C11.233 4.94288 11.2825 5.06231 11.2825 5.18685C11.2825 5.31138 11.233 5.43082 11.1449 5.51888L8.66408 8.00013L11.1442 10.481Z"
    fill="#EE0000" />
</svg>