<svg width="16" height="16" viewBox="0 0 16 16" fill="none" xmlns="http://www.w3.org/2000/svg">
  <rect width="16" height="16" rx="8" fill="#8BCC55" />
  <g clip-path="url(#clip0_105_542)">
    <path fill-rule="evenodd" clip-rule="evenodd"
      d="M11.9773 5.12949C12.0945 5.24669 12.1603 5.40564 12.1603 5.57136C12.1603 5.73709 12.0945 5.89603 11.9773 6.01324L7.29276 10.6978C7.23086 10.7597 7.15736 10.8089 7.07646 10.8424C6.99557 10.8759 6.90887 10.8931 6.82131 10.8931C6.73375 10.8931 6.64704 10.8759 6.56615 10.8424C6.48525 10.8089 6.41176 10.7597 6.34985 10.6978L4.02235 8.37074C3.96265 8.31309 3.91504 8.24412 3.88228 8.16787C3.84953 8.09161 3.83229 8.0096 3.83157 7.92662C3.83085 7.84363 3.84666 7.76133 3.87808 7.68452C3.90951 7.60771 3.95592 7.53793 4.0146 7.47924C4.07328 7.42056 4.14307 7.37415 4.21988 7.34273C4.29669 7.3113 4.37899 7.29549 4.46197 7.29621C4.54496 7.29693 4.62697 7.31417 4.70323 7.34693C4.77948 7.37968 4.84844 7.4273 4.9061 7.48699L6.8211 9.40199L11.0932 5.12949C11.1512 5.07141 11.2201 5.02534 11.296 4.9939C11.3718 4.96247 11.4532 4.94629 11.5353 4.94629C11.6174 4.94629 11.6987 4.96247 11.7745 4.9939C11.8504 5.02534 11.9193 5.07141 11.9773 5.12949Z"
      fill="#478054" />
  </g>
  <defs>
    <clipPath id="clip0_105_542">
      <rect width="10" height="10" fill="white" transform="translate(3 3)" />
    </clipPath>
  </defs>
</svg>